<?xml version="1.0" standalone="no"?>
<!DOCTYPE svg PUBLIC "-//W3C//DTD SVG 20010904//EN"
 "http://www.w3.org/TR/2001/REC-SVG-20010904/DTD/svg10.dtd">
<svg version="1.0" xmlns="http://www.w3.org/2000/svg"
 width="232.000000pt" height="232.000000pt" viewBox="0 0 232.000000 232.000000"
 preserveAspectRatio="xMidYMid meet">
<metadata>
Created by potrace 1.11, written by Peter Selinger 2001-2013
</metadata>
<g transform="translate(0.000000,232.000000) scale(0.100000,-0.100000)"
fill="#000000" stroke="none">
<path d="M20 1637 c10 -34 41 -132 68 -217 28 -85 91 -281 140 -435 50 -154
96 -293 103 -310 7 -16 12 -33 11 -37 -2 -9 -18 -9 201 -10 98 0 182 3 187 8
4 5 31 83 60 174 28 91 60 189 70 218 l17 54 73 -224 c39 -122 74 -225 75
-227 3 -3 183 -4 338 -2 29 1 49 6 52 14 2 6 64 201 138 432 74 231 138 430
142 443 6 21 12 22 94 22 l88 0 -59 -172 c-32 -95 -69 -202 -81 -238 l-22 -65
54 -165 c82 -252 95 -263 319 -265 79 -1 145 2 148 7 4 7 -75 267 -135 441
l-20 57 33 14 c26 11 36 24 53 72 24 66 113 341 136 420 l15 51 -402 0 c-377
1 -404 0 -455 -19 -65 -25 -122 -74 -144 -125 -9 -21 -35 -98 -58 -171 l-43
-133 -70 216 c-44 133 -75 213 -81 208 -5 -4 -4 0 4 9 12 16 3 17 -121 14
-142 -2 -174 -11 -246 -65 -44 -32 -61 -69 -118 -244 l-48 -147 -44 141 c-59
191 -95 245 -197 290 -41 18 -72 23 -172 26 l-122 3 19 -63z"/>
</g>
</svg>
