<svg xmlns="http://www.w3.org/2000/svg" viewBox="0 0 384 384"><defs><style>.cls-1{fill:#00507f;}</style></defs><g id="Camada_2" data-name="Camada 2"><g id="Camada_1-2" data-name="Camada 1"><path class="cls-1" d="M378.38,101.25H213.6A106.87,106.87,0,0,0,0,106.88V277.13A107,107,0,0,0,106.87,384H378.38a5.62,5.62,0,0,0,5.62-5.62V106.88a5.63,5.63,0,0,0-5.62-5.63ZM11.25,106.88a95.63,95.63,0,1,1,191.25,0V229.43a106.85,106.85,0,0,0-191.25,0Zm0,170.25a95.63,95.63,0,1,1,95.62,95.62,95.74,95.74,0,0,1-95.62-95.62Zm143.32,95.62a107,107,0,0,0,59.18-95.62V112.5h136.5V243.38a28.16,28.16,0,0,1-28.12,28.12h-67.5a5.63,5.63,0,0,0-5.63,5.63v67.5a28.16,28.16,0,0,1-28.13,28.12Zm168-90L260.24,345c0-.14,0-.28,0-.41V282.75h62.28Zm50.22,90H248.39l.31-.3S350,271.2,350,271.2a39.2,39.2,0,0,0,11.55-27.82V112.5h11.25Z"/><path class="cls-1" d="M106.87,339A61.88,61.88,0,1,0,45,277.13,61.95,61.95,0,0,0,106.87,339Zm0-112.5a50.63,50.63,0,1,1-50.62,50.63,50.68,50.68,0,0,1,50.62-50.63Z"/><path class="cls-1" d="M106.87,316.5A39.38,39.38,0,1,0,67.5,277.13a39.42,39.42,0,0,0,39.37,39.37Zm0-67.5a28.13,28.13,0,1,1-28.12,28.13A28.16,28.16,0,0,1,106.87,249Z"/><path class="cls-1" d="M106.87,192.75a83.68,83.68,0,0,0-50.53,16.8,5.63,5.63,0,1,0,6.75,9A73.11,73.11,0,1,1,48.3,233.34a5.63,5.63,0,1,0-9-6.75,84.38,84.38,0,1,0,67.57-33.84Z"/></g></g></svg>