<svg xmlns="http://www.w3.org/2000/svg" xmlns:xlink="http://www.w3.org/1999/xlink" viewBox="0 0 384 384"><defs><style>.cls-1{fill:none;}.cls-2{clip-path:url(#clip-path);}.cls-3{fill:#00507f;}</style><clipPath id="clip-path"><rect class="cls-1" width="384" height="384"/></clipPath></defs><g id="Camada_2" data-name="Camada 2"><g id="Camada_1-2" data-name="Camada 1"><g class="cls-2"><path class="cls-3" d="M374.67,105.8A32.05,32.05,0,0,0,384,83.2,28.36,28.36,0,0,0,379.52,68l-31.9-50.15A38.47,38.47,0,0,0,315.27,0H68.73A38.47,38.47,0,0,0,36.4,17.81L4.48,68A28.38,28.38,0,0,0,0,83.2a32.07,32.07,0,0,0,9.39,22.67,32.46,32.46,0,0,0,9.81,6.6V243.2a19.15,19.15,0,0,0-6.4,37.22v66.36A19.15,19.15,0,0,0,19.2,384H364.8a19.15,19.15,0,0,0,6.4-37.22V280.42a19.15,19.15,0,0,0-6.4-37.22V112.46a32.73,32.73,0,0,0,9.87-6.66Zm-9.05-9A19.33,19.33,0,0,1,352,102.4H332.8a19.2,19.2,0,0,1-19.2-19.2h57.6a19.25,19.25,0,0,1-5.58,13.55Zm-64,146.45,5.5-44a6.39,6.39,0,0,0-6.35-7.2H262.4a6.39,6.39,0,0,0-6.35,7.2l5.5,44H211.2V217.6a12.8,12.8,0,0,0-12.8-12.8H128V179.2h6.4a12.8,12.8,0,0,0,12.8-12.8V153.6a12.8,12.8,0,0,0-12.8-12.8H83.2a12.8,12.8,0,0,0-12.8,12.8v12.8a12.8,12.8,0,0,0,12.8,12.8h6.4v25.6H83.2a12.8,12.8,0,0,0-12.8,12.8v25.6H57.6V114.56a32,32,0,0,0,19.2-12.35,31.9,31.9,0,0,0,25.6,13H128a31.89,31.89,0,0,0,25.6-13,31.89,31.89,0,0,0,25.6,13h25.6a31.89,31.89,0,0,0,25.6-13,31.89,31.89,0,0,0,25.6,13h25.6a31.89,31.89,0,0,0,25.6-13,32,32,0,0,0,19.2,12.36V243.2Zm-32-38.4h23.9l-4.8,38.4h-14.3Zm-148-38.4H83.2V153.6h51.2v12.8Zm-19.2,12.8h12.8v25.6H102.4ZM96,217.6H198.4v25.6H83.2V217.6ZM300.8,83.2a19.2,19.2,0,0,1-19.2,19.2H256a19.2,19.2,0,0,1-19.2-19.2Zm-76.8,0a19.2,19.2,0,0,1-19.2,19.2H179.2A19.2,19.2,0,0,1,160,83.2Zm-140.8,0h64A19.2,19.2,0,0,1,128,102.4H102.4A19.2,19.2,0,0,1,83.2,83.2Zm-36-58.55A25.6,25.6,0,0,1,68.73,12.8H315.27A25.56,25.56,0,0,1,336.8,24.68L365.91,70.4h-54.4l-11.17-28a6.4,6.4,0,0,0-11.89,4.76l9.3,23.22H236.8V57.6a6.4,6.4,0,0,0-12.8,0V70.4H160V57.6a6.4,6.4,0,0,0-12.8,0V70.4H86.25l9.3-23.22a6.4,6.4,0,1,0-11.89-4.76l-11.19,28H18.07ZM12.8,83.2H70.4a19.2,19.2,0,0,1-19.2,19.2H32A19.15,19.15,0,0,1,12.8,83.2Zm19.2,32H44.8v128H32ZM358.4,345.6H25.6v-64H358.4Zm6.4,25.6H19.2a6.4,6.4,0,1,1,0-12.8H364.8a6.4,6.4,0,0,1,0,12.8Zm6.4-108.8a6.4,6.4,0,0,1-6.4,6.4H19.2a6.4,6.4,0,1,1,0-12.8H364.8a6.4,6.4,0,0,1,6.4,6.4ZM352,243.2H339.2v-128H352Z"/></g></g></g></svg>