<svg xmlns="http://www.w3.org/2000/svg" viewBox="0 0 422.31 382.66"><defs><style>.cls-1{fill:#00507f;}</style></defs><g id="Camada_2" data-name="Camada 2"><g id="Camada_1-2" data-name="Camada 1"><path class="cls-1" d="M412.63,0H9.68A9.69,9.69,0,0,0,0,9.68V128.94a28.64,28.64,0,0,0,36.07,27.72v175H33.88a9.67,9.67,0,0,0-9.68,9.67V373a9.69,9.69,0,0,0,9.68,9.68H385.53A9.67,9.67,0,0,0,395.2,373V341.37a9.66,9.66,0,0,0-9.67-9.67h-2.2v-176a28.64,28.64,0,0,0,39-26.77V9.68A9.68,9.68,0,0,0,412.63,0ZM375.85,363.3H43.56V351.05H375.85ZM81.24,157.42V68.9H341.91v88.51H81.24Zm240,40v70.48H231.78V197.38Zm-157,0V331.7H91V197.38ZM403,128.94a9.35,9.35,0,0,1-9.33,9.34,9.21,9.21,0,0,1-6.89-3.07,9.7,9.7,0,0,0-14.31,0,9.12,9.12,0,0,1-11.15,2v-78a9.68,9.68,0,0,0-9.68-9.68h-280a9.69,9.69,0,0,0-9.68,9.68V136.7a9.1,9.1,0,0,1-5.11,1.58,9.22,9.22,0,0,1-6.89-3.07,9.68,9.68,0,0,0-14.29,0,9.32,9.32,0,0,1-16.23-6.27V19.36H403Z"/><path class="cls-1" d="M168.14,140.7l-3.95-13H144.32l-4,13H127.91L147.15,86h14.13L180.6,140.7ZM161.43,118q-5.48-17.62-6.17-20c-.46-1.54-.79-2.75-1-3.65Q153,99.19,147.22,118Z"/><path class="cls-1" d="M210.62,95a11.77,11.77,0,0,0-10.11,4.9q-3.58,4.9-3.58,13.67,0,18.22,13.69,18.23A43.17,43.17,0,0,0,224.53,129v9.7a38.77,38.77,0,0,1-15,2.79q-11.9,0-18.19-7.21T185,113.51a33.82,33.82,0,0,1,3.09-14.89A22.32,22.32,0,0,1,197,88.81a26.29,26.29,0,0,1,13.6-3.41,36.72,36.72,0,0,1,16,3.84l-3.73,9.39a61,61,0,0,0-6.16-2.53A18.35,18.35,0,0,0,210.62,95Z"/><path class="cls-1" d="M259.21,140.7,246.08,97.93h-.34q.72,13,.71,17.41V140.7H236.12V86.18h15.74l12.9,41.69H265l13.68-41.69h15.74V140.7H283.63V114.89c0-1.22,0-2.62.05-4.21s.21-5.82.51-12.68h-.34l-14.06,42.7Z"/></g></g></svg>