<svg xmlns="http://www.w3.org/2000/svg" viewBox="0 0 230.45 108.71"><defs><style>.cls-1{fill:#00507e;}.cls-2{fill:none;stroke:#00507f;stroke-miterlimit:10;}</style></defs><g id="Camada_2" data-name="Camada 2"><g id="Camada_1-2" data-name="Camada 1"><path class="cls-1" d="M105.89,108.71h-18L70.73,48.36C70,45.73,69.07,41.93,68,37s-1.78-8.41-2-10.35q-.69,4.44-2.25,11.49t-2.6,10.52L44.36,108.71h-18L13.29,58.05,0,7.52H16.89l14.46,59q3.39,14.19,4.85,25.05c.5-3.92,1.27-8.3,2.28-13.15s1.94-8.76,2.77-11.76L57.72,7.52H74.13L91,66.91a218.7,218.7,0,0,1,5.12,24.63,182.27,182.27,0,0,1,5-25.19L115.51,7.52h16.75Z"/><path class="cls-1" d="M163.13,68.29v40.42H146.59V7.52h28.58q19.59,0,29,7.34T213.59,37q0,18.89-19.66,26.92l28.58,44.78H203.69L179.47,68.29Zm0-13.7h11.49q11.56,0,16.75-4.3t5.19-12.73q0-8.58-5.61-12.32T174.07,21.5H163.13Z"/><path class="cls-2" d="M112.91,101.69h-18L77.76,41.33Q76.65,37.4,75,30T73,19.6Q72.29,24,70.73,31.09t-2.6,10.52L51.39,101.69h-18L20.31,51,7,.5H23.91l14.46,59q3.39,14.19,4.85,25Q44,78.64,45.5,71.37t2.77-11.76L64.74.5H81.15L98,59.88a221.32,221.32,0,0,1,5.13,24.64,180.25,180.25,0,0,1,5-25.19L122.54.5h16.74Z"/><path class="cls-2" d="M170.15,61.27v40.42H153.61V.5H182.2q19.58,0,29,7.34T220.61,30q0,18.9-19.66,26.93l28.59,44.78H210.71L186.49,61.27Zm0-13.71h11.49q11.56,0,16.75-4.29t5.19-12.73q0-8.58-5.6-12.32t-16.89-3.74H170.15Z"/></g></g></svg>