<svg id="Camada_1" data-name="Camada 1" xmlns="http://www.w3.org/2000/svg" width="122.702" height="49.656" viewBox="0 0 122.702 49.656">
  <path id="Caminho_1" data-name="Caminho 1" d="M7.99,117.235H4.576L0,99.937H3.749L6.47,112.454h.094L9.8,99.937h3.059l3.235,12.516h.094l2.73-12.516H22.67l-4.592,17.3H14.664L11.39,105.421h-.107Zm20.236-8.956H31.4a2.929,2.929,0,0,0,2.135-.732,2.685,2.685,0,0,0,.752-2.027,3.066,3.066,0,0,0-.2-1.133,2.418,2.418,0,0,0-.583-.872,2.623,2.623,0,0,0-.918-.56,3.609,3.609,0,0,0-1.22-.2H28.226Zm0,8.956H24.62v-17.3h7.127a8.315,8.315,0,0,1,2.649.384,5.506,5.506,0,0,1,1.953,1.093,4.765,4.765,0,0,1,1.214,1.735,6.414,6.414,0,0,1,.208,3.905,5.174,5.174,0,0,1-.609,1.4,5.018,5.018,0,0,1-.976,1.133,4.556,4.556,0,0,1-1.325.784l3.629,6.87H34.409l-3.222-6.33H28.226Z" transform="translate(0 -67.885)" fill="#00689c" fill-rule="evenodd"/>
  <path id="Caminho_2" data-name="Caminho 2" d="M133.665,89.859a5.891,5.891,0,0,1,2.233.41,5.184,5.184,0,0,1,1.751,1.136,5.048,5.048,0,0,1,1.146,1.754,6.366,6.366,0,0,1,0,4.5,5.292,5.292,0,0,1-1.149,1.761,5.175,5.175,0,0,1-1.761,1.142,5.936,5.936,0,0,1-2.239.41h-4.354v6.183H127.13v-17.3Zm-4.374,9.2h3.814a5.1,5.1,0,0,0,1.653-.247,3.254,3.254,0,0,0,1.22-.719,3.1,3.1,0,0,0,.758-1.149,4.3,4.3,0,0,0,.257-1.543,3.468,3.468,0,0,0-1.009-2.678,4.047,4.047,0,0,0-2.88-.954h-3.814Zm20.578,3.141h-6.893l-1.738,4.956H138.96l6.375-17.3h2.132l6.375,17.3h-2.278Zm-6.242-1.842h5.591l-2.77-7.876h-.068Zm12.214,6.8v-17.3H158v17.3Zm5.51,0v-17.3h2.112l9.464,13.574h.107V89.859h2.132v17.3h-2.1L163.57,93.631h-.1v13.529Zm27.881,0H178.507v-17.3h10.707v1.953h-8.562v5.555h8.107v1.917h-8.107v5.936h8.562ZM183.012,88.58,185.778,85h2.372l-3.365,3.58Zm9.028,18.576v-17.3H194.2v17.3Zm6.873-4.745a2.955,2.955,0,0,0,.426,1.276,3.44,3.44,0,0,0,.941.976,4.517,4.517,0,0,0,1.367.631,6.326,6.326,0,0,0,1.709.221,5.682,5.682,0,0,0,1.627-.221,4.117,4.117,0,0,0,1.282-.615,2.809,2.809,0,0,0,.84-.928,2.376,2.376,0,0,0,.3-1.172,2.278,2.278,0,0,0-.8-1.8,6.285,6.285,0,0,0-2.538-1.168l-2.216-.57a10.642,10.642,0,0,1-2.067-.726,5.36,5.36,0,0,1-1.435-.976,3.58,3.58,0,0,1-.83-1.263,4.466,4.466,0,0,1-.27-1.595,4.413,4.413,0,0,1,.449-1.975,4.651,4.651,0,0,1,1.253-1.546,5.981,5.981,0,0,1,1.927-1.006,8.051,8.051,0,0,1,2.473-.361,7.485,7.485,0,0,1,2.379.364,6.105,6.105,0,0,1,1.888,1.019,4.751,4.751,0,0,1,1.263,1.559,4.621,4.621,0,0,1,.5,1.992h-2.154a3.3,3.3,0,0,0-.381-1.253,2.974,2.974,0,0,0-.817-.941,3.961,3.961,0,0,0-1.211-.592,5.308,5.308,0,0,0-1.533-.208,5.376,5.376,0,0,0-1.543.208,3.814,3.814,0,0,0-1.2.589,2.734,2.734,0,0,0-.781.9,2.45,2.45,0,0,0-.273,1.155,2.076,2.076,0,0,0,.186.888,2.122,2.122,0,0,0,.589.719,4.481,4.481,0,0,0,1.025.592,10.662,10.662,0,0,0,1.51.5l1.813.478a13.591,13.591,0,0,1,2.288.778,5.985,5.985,0,0,1,1.565,1.009,3.609,3.609,0,0,1,.892,1.3,4.6,4.6,0,0,1,.283,1.666,4.963,4.963,0,0,1-.452,2.138,4.459,4.459,0,0,1-1.3,1.627,6.115,6.115,0,0,1-2.044,1.022,9.269,9.269,0,0,1-2.682.358,8.367,8.367,0,0,1-2.525-.358,6.076,6.076,0,0,1-1.982-1.019,5.064,5.064,0,0,1-1.334-1.582,4.956,4.956,0,0,1-.566-2.083Z" transform="translate(-86.925 -57.81)" fill="#75c5ea" fill-rule="evenodd"/>
  <path id="Caminho_3" data-name="Caminho 3" d="M189.229,4.693,185.763,14.8a2.574,2.574,0,0,1,2.226-1.136c2.161,0,4.332.02,6.509.02h.117a1.849,1.849,0,0,0,1.829-1.165l1.8-5.594L200.463,0H181.441c-2.672,0-5.438,1.816-6.154,4.035l-.41,1.276-.1.325-1.953,6.014L168,26.686h9.7L184.887,4.4l.166-.514h4.465Z" transform="translate(-114.025)" fill="#75c5ea" fill-rule="evenodd"/>
  <path id="Caminho_4" data-name="Caminho 4" d="M221.79,44.56h0a1.78,1.78,0,0,0,.189.791l2.337,7.257a4.644,4.644,0,0,0,4.6,2.929h6.053L230.847,42.77H224.26a2.636,2.636,0,0,0-1.194.28,2.047,2.047,0,0,0-.823.749Z" transform="translate(-150.372 -29.027)" fill="#00507e" fill-rule="evenodd"/>
  <path id="Caminho_5" data-name="Caminho 5" d="M165.158,12.067l-3.5-10.847L156.81,16.275l3.5,10.85Z" transform="translate(-106.294 -0.823)" fill="#00507e" fill-rule="evenodd"/>
  <path id="Caminho_6" data-name="Caminho 6" d="M130.464,9.07,133.393,0h-4.859c-2.669,0-5.438,1.816-6.151,4.035l-2.447,7.606L115.08,26.686h9.7l3.749-11.641Z" transform="translate(-78.043)" fill="#75c5ea" fill-rule="evenodd"/>
  <path id="Caminho_7" data-name="Caminho 7" d="M101.967,11.244l-2.06-6.392A7.3,7.3,0,0,0,93.492,0H88.64L97.1,26.3Z" transform="translate(-60.098)" fill="#00507e" fill-rule="evenodd"/>
</svg>
